<?xml version="1.0" encoding="utf-8"?>
<!-- Generator: Adobe Illustrator 24.1.2, SVG Export Plug-In . SVG Version: 6.00 Build 0)  -->
<svg version="1.1" id="Capa_1" xmlns="http://www.w3.org/2000/svg" xmlns:xlink="http://www.w3.org/1999/xlink" x="0px" y="0px"
	 viewBox="0 0 500 500" style="enable-background:new 0 0 500 500;" xml:space="preserve">
<style type="text/css">
	.st0{display:none;}
	.st1{display:inline;stroke:#000000;stroke-miterlimit:10;}
	.st2{display:inline;fill:#FFFFFF;stroke:#000000;stroke-miterlimit:10;}
	.st3{display:inline;fill:#FF0000;stroke:#000000;stroke-miterlimit:10;}
	.st4{fill:#93873E;}
	.st5{fill:#77BDE0;}
	.st6{fill:#28CC1F;}
	.st7{fill:#39962F;}
	.st8{fill:#F8F797;}
	.st9{fill:#EA2A2A;}
	.st10{opacity:0.5;fill:#1C1817;enable-background:new    ;}
	.st11{fill:#84814D;}
	.st12{fill:#426199;}
</style>
<g id="Capa_1_1_" class="st0">
	
		<image style="display:inline;overflow:visible;enable-background:new    ;" width="99" height="66" xlink:href="42DA2871.jpeg"  transform="matrix(3.308 0 0 3.308 80 153.8376)">
	</image>
	<path class="st1" d="M85.6,85.5h337.8c0,0,22.6-1.4,22.6,15.7c0,20,0,312.7,0,312.7s1.2,17.1-21.4,17.1s-334.2,0-334.2,0
		s-23.8,1.4-25-20c0-25.7,0-304.1,0-304.1S60.6,85.5,85.6,85.5z"/>
	<path class="st2" d="M271,238.3c0,0-51.7-57.6-124.1,0c-7.4-7.4-25.1-91.6,63.5-97.5C290.2,142.3,287.3,225,271,238.3z"/>
	<path class="st3" d="M273.7,270.4c0,0,57.6-51.7,0-124.1c7.4-7.4,91.6-25.1,97.5,63.5C369.7,289.6,287,286.6,273.7,270.4z"/>
	<path class="st2" d="M238.5,240.6c0,0-57.6,51.7,0,124.1c-7.4,7.4-91.6,25.1-97.5-63.5C142.5,221.4,225.2,224.3,238.5,240.6z"/>
	<path class="st2" d="M241.1,276.4c0,0,51.7,57.6,124,0c7.4,7.4,25.1,91.6-63.5,97.5C221.9,372.4,224.8,289.7,241.1,276.4z"/>
</g>
<g id="Capa_2_1_">
	
		<image style="display:none;overflow:visible;opacity:0.5;enable-background:new    ;" width="218" height="161" xlink:href="42DA2873.jpeg"  transform="matrix(2.477 0 0 2.477 0 35.2707)">
	</image>
	<polygon class="st4" points="471,320 389,345 341,340 279,275 323,281 407,254 	"/>
	<polygon class="st5" points="100,284 195,266 240,271 302,335 260,332 164,349 	"/>
	<polygon class="st6" points="21,204 115,187 269,201 327,175 392,238 308,266 179,250 85,269 	"/>
	<polygon class="st7" points="116.6,187.1 179,250 308,266 252,199.4 	"/>
	<polygon class="st8" points="392,238 407,254 323,281 279,275 339.8,338.7 301,334.9 240,271 195,266 100,284 85,269 179,250 
		309.5,266 	"/>
	<path class="st9" d="M217,160c-1-7-13-66,53-69c65,0,53,65,52,69c1,5-51,92-52,110C261,250,217,168,217,160z"/>
	<circle class="st10" cx="271" cy="145" r="19"/>
	<polygon class="st11" points="279,275 323,281 387.8,345 341,340 	"/>
	<polygon class="st12" points="195,266 240,271 301,335 260,332 	"/>
</g>
</svg>
